<svg width="41" height="41" viewBox="0 0 41 41" fill="none" xmlns="http://www.w3.org/2000/svg">
<path d="M12.5884 23.7965C12.5884 24.889 11.703 25.7744 10.6109 25.7744C9.5184 25.7744 8.63306 24.889 8.63306 23.7965C8.63306 22.7041 9.51845 21.8187 10.6109 21.8187C11.703 21.8187 12.5884 22.7041 12.5884 23.7965Z" fill="white"/>
<path d="M26.9329 23.7965L29.73 20.9994L32.5272 23.7965L29.73 26.5937L26.9329 23.7965Z" fill="white"/>
<path d="M31.5764 12.5883H28.4118V11.2699C28.4118 10.5704 28.134 9.89974 27.6395 9.40517C27.1449 8.91061 26.4743 8.63288 25.7747 8.63288H21.8479V7.97337C21.8451 7.8004 21.9119 7.63335 22.0341 7.51049C22.1535 7.38764 22.317 7.31699 22.489 7.31421C23.3594 7.31142 24.1936 6.96443 24.8093 6.34876C25.425 5.7331 25.772 4.89891 25.7747 4.02845V2.03983C25.7747 1.56894 25.5235 1.13355 25.1156 0.897978C24.7073 0.662364 24.2047 0.662364 23.7969 0.897978C23.389 1.13359 23.1377 1.56898 23.1377 2.03983V4.02845C23.137 4.38622 22.8467 4.67647 22.489 4.67717C21.6112 4.67612 20.7697 5.02729 20.1523 5.65134C19.5352 6.27536 19.1938 7.12071 19.2042 7.99848L19.2108 8.63294H15.2262C14.5266 8.63294 13.856 8.91067 13.3614 9.40522C12.8668 9.89977 12.5888 10.5704 12.5888 11.27V12.5887L9.42444 12.5883C7.11704 12.5911 4.90524 13.5092 3.27372 15.1405C1.64246 16.772 0.724775 18.9838 0.721924 21.2912V22.9183C0.753246 26.3248 1.04768 29.7244 1.60244 33.0859C2.01068 35.5677 3.52673 37.7286 5.72169 38.9571C7.91639 40.1857 10.551 40.3482 12.88 39.3984C15.2094 38.449 16.9791 36.4902 17.6891 34.0774L18.4343 31.5392C18.6093 30.9402 19.036 30.4471 19.6033 30.1878C20.1709 29.9282 20.8231 29.9282 21.3905 30.1878C21.9581 30.4471 22.3848 30.9402 22.5598 31.5392L23.3088 34.0812C24.0202 36.493 25.7903 38.4496 28.1185 39.3984C30.4472 40.3471 33.0807 40.185 35.2747 38.9575C37.4691 37.73 38.9854 35.5704 39.3954 33.0897C39.9512 29.7271 40.2467 26.3265 40.2787 22.9185V21.2915C40.2759 18.9841 39.3582 16.7723 37.7266 15.1408C36.0953 13.5095 33.8832 12.5915 31.5762 12.5886L31.5764 12.5883ZM15.2265 11.2699H25.7745V12.5886L15.2265 12.5883V11.2699ZM10.6116 28.4111C9.38759 28.4111 8.21367 27.9249 7.3481 27.0593C6.48255 26.1941 5.99634 25.0202 5.99634 23.7962C5.99634 22.5722 6.48253 21.3983 7.3481 20.533C8.21365 19.6675 9.38759 19.1813 10.6116 19.1813C11.8352 19.1813 13.0092 19.6675 13.8747 20.533C14.7403 21.3982 15.2265 22.5722 15.2265 23.7962C15.2265 25.0202 14.7403 26.1941 13.8747 27.0593C13.0092 27.9249 11.8352 28.4111 10.6116 28.4111ZM34.3921 25.6606L31.5953 28.4574C31.1008 28.9516 30.4301 29.2293 29.7309 29.2293C29.0317 29.2293 28.3611 28.9516 27.8665 28.4574L25.0697 25.6606C24.5755 25.166 24.2974 24.4954 24.2974 23.7962C24.2974 23.097 24.5755 22.4263 25.0697 21.9318L27.8665 19.135C28.361 18.6407 29.0317 18.363 29.7309 18.363C30.4301 18.363 31.1008 18.6407 31.5953 19.135L34.3921 21.9318C34.8863 22.4263 35.1641 23.097 35.1641 23.7962C35.1641 24.4954 34.8863 25.166 34.3921 25.6606Z" fill="white"/>
</svg>
