<svg width="19" height="18" viewBox="0 0 19 18" fill="none" xmlns="http://www.w3.org/2000/svg">
<g clip-path="url(#clip0_15_35)">
<path d="M16.0148 0L19 5.625H15.6651L13.3825 0H16.0148ZM11.7925 0L14.0752 5.625H4.92483L7.20747 0H11.7925ZM2.98524 0H5.61754L3.3349 5.625H0L2.98524 0ZM0 6.75H3.3217L7.37899 15.5988C7.42847 15.7078 7.28993 15.8062 7.21406 15.7148L0 6.75ZM4.88854 6.75H14.1115L9.59236 17.9367C9.55937 18.0211 9.44392 18.0211 9.41094 17.9367L4.88854 6.75ZM11.621 15.5988L15.6783 6.75H19L11.7859 15.7113C11.7101 15.8062 11.5715 15.7078 11.621 15.5988Z" fill="#6C02D7"/>
</g>
<defs>
<clipPath id="clip0_15_35">
<rect width="19" height="18" fill="white"/>
</clipPath>
</defs>
</svg>
