<svg width="490" height="101" viewBox="0 0 490 101" fill="none" xmlns="http://www.w3.org/2000/svg">
<path d="M7.58594 32L11.5703 8H16.6445L15.0039 17.9023H25.3047L26.9453 8H32.0078L28.0234 32H22.9609L24.6016 22.0859H14.3008L12.6602 32H7.58594ZM34.7852 8H40.4688L44.2305 18.3359H44.4883L51.6484 8H57.332L46.0117 23.5156L44.5938 32H39.5547L40.9727 23.5156L34.7852 8ZM56.1191 32L60.1035 8H69.5723C71.3848 8 72.873 8.34766 74.0371 9.04297C75.209 9.73047 76.0293 10.6875 76.498 11.9141C76.9746 13.1328 77.084 14.5391 76.8262 16.1328C76.5605 17.7344 75.9824 19.1445 75.0918 20.3633C74.209 21.5742 73.0605 22.5195 71.6465 23.1992C70.2324 23.8789 68.5996 24.2187 66.748 24.2187H60.7129L61.3809 20.1523H66.5957C67.5801 20.1523 68.4199 19.9844 69.1152 19.6484C69.8184 19.3047 70.377 18.832 70.791 18.2305C71.2051 17.6211 71.4746 16.9219 71.5996 16.1328C71.7324 15.3281 71.6895 14.6289 71.4707 14.0352C71.252 13.4414 70.8496 12.9805 70.2637 12.6523C69.6855 12.3164 68.9082 12.1484 67.9316 12.1484H64.5098L61.1934 32H56.1191ZM77.4854 32L81.4697 8H97.6416L96.9385 12.1836H85.8408L84.9033 17.9023H95.1689L94.4658 22.0859H84.2002L83.2627 27.8164H94.4072L93.7041 32H77.4854ZM97.6914 32L101.676 8H111.145C112.957 8 114.449 8.32031 115.621 8.96094C116.801 9.60156 117.629 10.5117 118.105 11.6914C118.59 12.8633 118.703 14.2461 118.445 15.8398C118.18 17.4336 117.605 18.8008 116.723 19.9414C115.848 21.082 114.707 21.9609 113.301 22.5781C111.902 23.1875 110.281 23.4922 108.438 23.4922H102.098L102.801 19.4141H108.309C109.277 19.4141 110.105 19.2812 110.793 19.0156C111.48 18.75 112.023 18.3516 112.422 17.8203C112.828 17.2891 113.094 16.6289 113.219 15.8398C113.352 15.0352 113.305 14.3633 113.078 13.8242C112.852 13.2773 112.441 12.8633 111.848 12.582C111.254 12.293 110.473 12.1484 109.504 12.1484H106.082L102.766 32H97.6914ZM112.457 21.0781L116.617 32H111.016L106.984 21.0781H112.457Z" fill="#6C02D7"/>
<path d="M44.7656 58.1733H34.2401C34.2969 57.0653 34.1903 56.0781 33.9205 55.2116C33.6506 54.331 33.2244 53.5781 32.642 52.9531C32.0597 52.3139 31.3352 51.831 30.4688 51.5043C29.6023 51.1776 28.5938 51.0142 27.4432 51.0142C25.2415 51.0142 23.2457 51.5611 21.456 52.6548C19.6662 53.7486 18.1676 55.3253 16.9602 57.3849C15.7528 59.4446 14.9077 61.9162 14.4247 64.7997C13.9844 67.5838 13.9915 69.9062 14.446 71.767C14.9148 73.6278 15.7813 75.027 17.0455 75.9645C18.3097 76.8878 19.9148 77.3494 21.8608 77.3494C23.125 77.3494 24.2969 77.2003 25.3764 76.902C26.4702 76.5895 27.4574 76.142 28.3381 75.5597C29.2188 74.9773 29.9787 74.2741 30.6179 73.4503C31.2713 72.6122 31.7756 71.6818 32.1307 70.6591H42.7415C42.2159 72.5767 41.3494 74.4872 40.142 76.3906C38.9489 78.2798 37.4432 79.9915 35.625 81.5256C33.8068 83.0597 31.6974 84.2884 29.2969 85.2116C26.8963 86.1349 24.2259 86.5966 21.2855 86.5966C17.2656 86.5966 13.7997 85.6946 10.8878 83.8906C7.99006 82.0866 5.89489 79.473 4.60227 76.0497C3.32386 72.6122 3.08239 68.4503 3.87784 63.5639C4.65909 58.8338 6.20028 54.8494 8.50142 51.6108C10.8168 48.3722 13.6293 45.9219 16.9389 44.2599C20.2628 42.598 23.8068 41.767 27.571 41.767C30.2983 41.767 32.7486 42.1364 34.9219 42.875C37.1094 43.5994 38.9631 44.6648 40.483 46.071C42.0028 47.4631 43.1321 49.1747 43.8707 51.206C44.6236 53.2372 44.9219 55.5597 44.7656 58.1733ZM54.5455 86H43.2102L65.1776 42.3636H79.2188L86.6974 86H75.3622L70.5682 53.358H70.2273L54.5455 86ZM55.9091 68.8267H79.6023L78.2386 76.8381H54.5455L55.9091 68.8267ZM118.663 55.5312C118.777 53.9261 118.35 52.6832 117.385 51.8026C116.433 50.9219 114.927 50.4815 112.868 50.4815C111.504 50.4815 110.339 50.6591 109.373 51.0142C108.407 51.3551 107.647 51.8381 107.093 52.4631C106.539 53.0739 106.191 53.7841 106.049 54.5938C105.922 55.233 105.957 55.8011 106.156 56.2983C106.355 56.7955 106.703 57.2358 107.2 57.6193C107.711 58.0028 108.343 58.3366 109.096 58.6207C109.863 58.9048 110.723 59.1534 111.674 59.3665L115.254 60.2188C117.328 60.6875 119.125 61.3125 120.645 62.0938C122.179 62.8608 123.422 63.7912 124.373 64.8849C125.325 65.9645 125.978 67.2074 126.333 68.6136C126.689 70.0199 126.717 71.5966 126.419 73.3438C125.964 76.0994 124.877 78.4645 123.159 80.4389C121.454 82.4134 119.224 83.9261 116.468 84.9773C113.727 86.0284 110.538 86.554 106.902 86.554C103.265 86.554 100.176 86.0071 97.6332 84.9134C95.1048 83.8054 93.2724 82.1364 92.136 79.9062C90.9996 77.6761 90.6942 74.8636 91.2198 71.4688H101.298C101.142 72.875 101.319 74.0469 101.831 74.9844C102.356 75.9219 103.166 76.6321 104.26 77.1151C105.353 77.598 106.674 77.8395 108.223 77.8395C109.643 77.8395 110.886 77.6477 111.951 77.2642C113.031 76.8807 113.89 76.348 114.529 75.6662C115.183 74.9844 115.581 74.2031 115.723 73.3224C115.865 72.5128 115.73 71.8097 115.318 71.2131C114.92 70.6165 114.238 70.098 113.272 69.6577C112.321 69.2173 111.071 68.8196 109.522 68.4645L105.154 67.3991C101.547 66.5185 98.8121 65.1122 96.9513 63.1804C95.1048 61.2486 94.4513 58.6278 94.9911 55.3182C95.4457 52.6051 96.5678 50.233 98.3576 48.2017C100.162 46.1705 102.441 44.5937 105.197 43.4716C107.967 42.3352 111.014 41.767 114.338 41.767C117.718 41.767 120.559 42.3423 122.86 43.4929C125.176 44.6293 126.845 46.2344 127.868 48.3082C128.904 50.3679 129.203 52.7756 128.762 55.5312H118.663ZM163.301 42.3636H173.826L169.16 70.5099C168.62 73.7628 167.377 76.5966 165.431 79.0114C163.5 81.4119 161.035 83.2727 158.038 84.5938C155.041 85.9006 151.703 86.554 148.024 86.554C144.331 86.554 141.213 85.9006 138.67 84.5938C136.127 83.2727 134.288 81.4119 133.152 79.0114C132.015 76.5966 131.71 73.7628 132.235 70.5099L136.902 42.3636H147.449L142.91 69.5938C142.669 71.0994 142.782 72.4418 143.251 73.6207C143.734 74.7855 144.515 75.7088 145.595 76.3906C146.674 77.0582 147.995 77.392 149.558 77.392C151.135 77.392 152.576 77.0582 153.883 76.3906C155.19 75.7088 156.27 74.7855 157.122 73.6207C157.974 72.4418 158.521 71.0994 158.762 69.5938L163.301 42.3636ZM182.631 86H171.296L193.263 42.3636H207.305L214.783 86H203.448L198.654 53.358H198.313L182.631 86ZM183.995 68.8267H207.688L206.325 76.8381H182.631L183.995 68.8267ZM219.482 86L226.726 42.3636H237.273L231.477 77.4347H249.631L248.182 86H219.482ZM300.048 56.6179C299.963 55.723 299.764 54.9347 299.451 54.2528C299.139 53.5568 298.713 52.9673 298.173 52.4844C297.633 52.0014 296.966 51.6392 296.17 51.3977C295.375 51.142 294.451 51.0142 293.4 51.0142C291.298 51.0142 289.352 51.5256 287.562 52.5483C285.772 53.571 284.26 55.0625 283.024 57.0227C281.788 58.9687 280.943 61.3338 280.488 64.1179C280.034 66.9162 280.02 69.3026 280.446 71.277C280.886 73.2514 281.767 74.7571 283.088 75.794C284.409 76.831 286.156 77.3494 288.329 77.3494C290.275 77.3494 291.994 77.0369 293.485 76.4119C294.977 75.7727 296.184 74.8707 297.108 73.706C298.045 72.5412 298.635 71.1705 298.876 69.5938L300.815 69.8281H290.204L291.483 62.1364H310.275L309.316 67.9105C308.677 71.8168 307.299 75.1619 305.183 77.946C303.081 80.7301 300.453 82.8679 297.299 84.3594C294.16 85.8509 290.716 86.5966 286.966 86.5966C282.818 86.5966 279.316 85.6946 276.461 83.8906C273.606 82.0866 271.575 79.5156 270.368 76.1776C269.16 72.8253 268.933 68.848 269.686 64.2457C270.282 60.6662 271.341 57.4915 272.86 54.7216C274.395 51.9375 276.27 49.5795 278.485 47.6477C280.716 45.7159 283.18 44.2528 285.879 43.2585C288.578 42.2642 291.383 41.767 294.295 41.767C296.809 41.767 299.096 42.1293 301.156 42.8537C303.216 43.5781 304.977 44.6009 306.44 45.9219C307.903 47.2429 309.004 48.8125 309.743 50.6307C310.495 52.4489 310.822 54.4446 310.723 56.6179H300.048ZM320.62 86H309.284L331.252 42.3636H345.293L352.772 86H341.436L336.642 53.358H336.301L320.62 86ZM321.983 68.8267H345.676L344.313 76.8381H320.62L321.983 68.8267ZM364.714 42.3636H377.775L384.38 69.3807H384.892L400.446 42.3636H413.507L406.262 86H395.993L400.446 59.196H400.083L385.211 85.723H378.67L372.619 59.0469H372.257L367.74 86H357.47L364.714 42.3636ZM412.841 86L420.085 42.3636H450.511L449.062 50.929H429.183L427.734 59.8778H446.058L444.609 68.4645H426.286L424.837 77.4347H444.716L443.267 86H412.841ZM478.487 55.5312C478.601 53.9261 478.175 52.6832 477.209 51.8026C476.257 50.9219 474.751 50.4815 472.692 50.4815C471.328 50.4815 470.163 50.6591 469.197 51.0142C468.232 51.3551 467.472 51.8381 466.918 52.4631C466.364 53.0739 466.016 53.7841 465.874 54.5938C465.746 55.233 465.781 55.8011 465.98 56.2983C466.179 56.7955 466.527 57.2358 467.024 57.6193C467.536 58.0028 468.168 58.3366 468.92 58.6207C469.688 58.9048 470.547 59.1534 471.499 59.3665L475.078 60.2188C477.152 60.6875 478.949 61.3125 480.469 62.0938C482.003 62.8608 483.246 63.7912 484.197 64.8849C485.149 65.9645 485.803 67.2074 486.158 68.6136C486.513 70.0199 486.541 71.5966 486.243 73.3438C485.788 76.0994 484.702 78.4645 482.983 80.4389C481.278 82.4134 479.048 83.9261 476.293 84.9773C473.551 86.0284 470.362 86.554 466.726 86.554C463.089 86.554 460 86.0071 457.457 84.9134C454.929 83.8054 453.097 82.1364 451.96 79.9062C450.824 77.6761 450.518 74.8636 451.044 71.4688H461.122C460.966 72.875 461.143 74.0469 461.655 74.9844C462.18 75.9219 462.99 76.6321 464.084 77.1151C465.178 77.598 466.499 77.8395 468.047 77.8395C469.467 77.8395 470.71 77.6477 471.776 77.2642C472.855 76.8807 473.714 76.348 474.354 75.6662C475.007 74.9844 475.405 74.2031 475.547 73.3224C475.689 72.5128 475.554 71.8097 475.142 71.2131C474.744 70.6165 474.063 70.098 473.097 69.6577C472.145 69.2173 470.895 68.8196 469.347 68.4645L464.979 67.3991C461.371 66.5185 458.636 65.1122 456.776 63.1804C454.929 61.2486 454.276 58.6278 454.815 55.3182C455.27 52.6051 456.392 50.233 458.182 48.2017C459.986 46.1705 462.266 44.5937 465.021 43.4716C467.791 42.3352 470.838 41.767 474.162 41.767C477.543 41.767 480.384 42.3423 482.685 43.4929C485 44.6293 486.669 46.2344 487.692 48.3082C488.729 50.3679 489.027 52.7756 488.587 55.5312H478.487Z" fill="#6C02D7"/>
</svg>
