<svg width="205" height="101" viewBox="0 0 205 101" fill="none" xmlns="http://www.w3.org/2000/svg">
<g clip-path="url(#clip0_106_11)">
<path d="M193.234 41.7708C194.211 40.7454 195.797 40.7454 196.773 41.7708L204.273 49.6458C205.25 50.6711 205.25 52.3364 204.273 53.3618L196.773 61.2368C195.797 62.2622 194.211 62.2622 193.234 61.2368C192.258 60.2114 192.258 58.5461 193.234 57.5208L196.461 54.1247H180C177.242 54.1247 175 56.479 175 59.3747V61.9997C175 63.4516 173.883 64.6247 172.5 64.6247C171.117 64.6247 170 63.4516 170 61.9997V59.3747C170 53.575 174.477 48.8747 180 48.8747H196.461L193.234 45.4786C192.258 44.4532 192.258 42.7879 193.234 41.7625V41.7708ZM185.734 62.7708C186.711 61.7454 188.297 61.7454 189.273 62.7708L196.773 70.6458C197.75 71.6711 197.75 73.3364 196.773 74.3618L189.273 82.2368C188.297 83.2622 186.711 83.2622 185.734 82.2368C184.758 81.2114 184.758 79.5461 185.734 78.5208L188.961 75.1247H177.5C176.117 75.1247 175 76.2977 175 77.7497V80.3747C175 81.8266 173.883 82.9997 172.5 82.9997C171.117 82.9997 170 81.8266 170 80.3747V77.7497C170 73.402 173.359 69.8747 177.5 69.8747H188.961L185.727 66.4786C184.75 65.4532 184.75 63.7879 185.727 62.7625L185.734 62.7708Z" fill="#6C02D7"/>
</g>
<g clip-path="url(#clip1_106_11)">
<path fill-rule="evenodd" clip-rule="evenodd" d="M148 14.4583C148.217 14.4583 148.427 14.5393 148.588 14.6855C148.749 14.8318 148.85 15.0327 148.871 15.2493L148.875 15.3333V15.6249H150.916C151.141 15.625 151.357 15.7116 151.52 15.8667C151.682 16.0217 151.779 16.2334 151.79 16.4579C151.801 16.6823 151.725 16.9023 151.578 17.0723C151.431 17.2423 151.224 17.3492 151 17.3708L150.916 17.3749H148.875V19.1249H149.458C150.144 19.1249 150.802 19.3931 151.292 19.872C151.783 20.351 152.066 21.0028 152.082 21.6881C152.099 22.3734 151.846 23.0378 151.379 23.5393C150.911 24.0408 150.267 24.3397 149.582 24.372L149.458 24.3749H148.875V24.6666C148.875 24.8913 148.788 25.1073 148.633 25.27C148.478 25.4326 148.266 25.5293 148.042 25.5401C147.817 25.5509 147.597 25.475 147.427 25.328C147.257 25.181 147.151 24.9742 147.129 24.7506L147.125 24.6666V24.3749H145.083C144.858 24.3748 144.642 24.2882 144.48 24.1332C144.317 23.9781 144.22 23.7664 144.21 23.542C144.199 23.3175 144.275 23.0975 144.422 22.9276C144.569 22.7576 144.775 22.6507 144.999 22.629L145.083 22.6249H147.125V20.8749H146.541C145.856 20.8749 145.198 20.6068 144.707 20.1278C144.217 19.6488 143.933 18.9971 143.917 18.3118C143.901 17.6265 144.154 16.9621 144.621 16.4605C145.088 15.959 145.733 15.6601 146.418 15.6278L146.541 15.6249H147.125V15.3333C147.125 15.1012 147.217 14.8786 147.381 14.7145C147.545 14.5504 147.768 14.4583 148 14.4583ZM149.458 20.8749H148.875V22.6249H149.458C149.69 22.6249 149.913 22.5327 150.077 22.3686C150.241 22.2045 150.333 21.982 150.333 21.7499C150.333 21.5179 150.241 21.2953 150.077 21.1312C149.913 20.9671 149.69 20.8749 149.458 20.8749ZM147.125 17.3749H146.541C146.309 17.3749 146.087 17.4671 145.923 17.6312C145.759 17.7953 145.666 18.0179 145.666 18.2499C145.666 18.482 145.759 18.7045 145.923 18.8686C146.087 19.0327 146.309 19.1249 146.541 19.1249H147.125V17.3749Z" fill="#6C02D7"/>
</g>
<path d="M11.5703 8H17.8281L21.7773 24.125H22.0586L31.3281 8H37.5859L33.6016 32H28.6797L31.2813 16.3789H31.0703L22.3047 31.8828H18.9414L15.332 16.3203H15.1328L12.5078 32H7.58594L11.5703 8ZM61.7822 20.3281C61.3447 22.8906 60.4971 25.0664 59.2393 26.8555C57.9893 28.6445 56.4619 30.0039 54.6572 30.9336C52.8604 31.8633 50.9229 32.3281 48.8447 32.3281C46.665 32.3281 44.7861 31.832 43.208 30.8398C41.6377 29.8477 40.501 28.4141 39.7979 26.5391C39.0947 24.6562 38.9619 22.3867 39.3994 19.7305C39.8213 17.1602 40.6611 14.9805 41.9189 13.1914C43.1768 11.3945 44.7119 10.0273 46.5244 9.08984C48.3369 8.14453 50.2861 7.67187 52.3721 7.67187C54.5361 7.67187 56.4033 8.17187 57.9736 9.17187C59.5518 10.1719 60.6885 11.6172 61.3838 13.5078C62.0869 15.3906 62.2197 17.6641 61.7822 20.3281ZM56.7314 19.7305C57.0049 18.082 56.9932 16.6992 56.6963 15.582C56.4072 14.457 55.876 13.6055 55.1025 13.0273C54.3291 12.4492 53.3525 12.1602 52.1729 12.1602C50.8916 12.1602 49.7158 12.4805 48.6455 13.1211C47.583 13.7617 46.6846 14.6914 45.9502 15.9102C45.2236 17.1211 44.7197 18.5937 44.4385 20.3281C44.1572 21.9844 44.165 23.3672 44.4619 24.4766C44.7666 25.5859 45.3096 26.4258 46.0908 26.9961C46.8799 27.5586 47.8604 27.8398 49.0322 27.8398C50.3057 27.8398 51.4697 27.5273 52.5244 26.9023C53.5869 26.2695 54.4814 25.3516 55.208 24.1484C55.9346 22.9375 56.4424 21.4648 56.7314 19.7305ZM70.5625 8L73.3516 26.2344H73.5742L82.3984 8H88.0234L75.7656 32H69.2266L64.9258 8H70.5625ZM86.9277 32L90.9121 8H107.084L106.381 12.1836H95.2832L94.3457 17.9023H104.611L103.908 22.0859H93.6426L92.7051 27.8164H103.85L103.146 32H86.9277ZM117.139 12.1836L117.842 8H137.553L136.85 12.1836H129.502L126.221 32H121.205L124.486 12.1836H117.139ZM159.719 20.3281C159.281 22.8906 158.434 25.0664 157.176 26.8555C155.926 28.6445 154.398 30.0039 152.594 30.9336C150.797 31.8633 148.859 32.3281 146.781 32.3281C144.602 32.3281 142.723 31.832 141.145 30.8398C139.574 29.8477 138.438 28.4141 137.734 26.5391C137.031 24.6562 136.898 22.3867 137.336 19.7305C137.758 17.1602 138.598 14.9805 139.855 13.1914C141.113 11.3945 142.648 10.0273 144.461 9.08984C146.273 8.14453 148.223 7.67187 150.309 7.67187C152.473 7.67187 154.34 8.17187 155.91 9.17187C157.488 10.1719 158.625 11.6172 159.32 13.5078C160.023 15.3906 160.156 17.6641 159.719 20.3281ZM154.668 19.7305C154.941 18.082 154.93 16.6992 154.633 15.582C154.344 14.457 153.812 13.6055 153.039 13.0273C152.266 12.4492 151.289 12.1602 150.109 12.1602C148.828 12.1602 147.652 12.4805 146.582 13.1211C145.52 13.7617 144.621 14.6914 143.887 15.9102C143.16 17.1211 142.656 18.5937 142.375 20.3281C142.094 21.9844 142.102 23.3672 142.398 24.4766C142.703 25.5859 143.246 26.4258 144.027 26.9961C144.816 27.5586 145.797 27.8398 146.969 27.8398C148.242 27.8398 149.406 27.5273 150.461 26.9023C151.523 26.2695 152.418 25.3516 153.145 24.1484C153.871 22.9375 154.379 21.4648 154.668 19.7305Z" fill="#6C02D7"/>
<path d="M0.575284 86L7.8196 42.3636H38.2457L36.7969 50.929H16.9176L15.4688 59.8778H33.7926L32.3438 68.4645H14.0199L12.571 77.4347H32.4503L31.0014 86H0.575284ZM47.0455 86H35.7102L57.6776 42.3636H71.7188L79.1974 86H67.8622L63.0682 53.358H62.7273L47.0455 86ZM48.4091 68.8267H72.1023L70.7386 76.8381H47.0455L48.4091 68.8267ZM83.8956 86L91.1399 42.3636H109.165C112.433 42.3636 115.16 42.9531 117.347 44.1321C119.535 45.2969 121.09 46.973 122.013 49.1605C122.937 51.3338 123.15 53.9119 122.653 56.8949C122.17 59.9062 121.09 62.4702 119.414 64.5866C117.752 66.6889 115.607 68.294 112.979 69.402C110.366 70.5099 107.397 71.0639 104.073 71.0639H92.674L94.0803 62.7543H103.519C105.096 62.7543 106.46 62.5483 107.61 62.1364C108.761 61.7102 109.677 61.071 110.359 60.2188C111.055 59.3523 111.516 58.2443 111.744 56.8949C111.957 55.5455 111.857 54.4304 111.445 53.5497C111.048 52.6548 110.344 51.9872 109.336 51.5469C108.342 51.0923 107.063 50.8651 105.501 50.8651H100.302L94.4425 86H83.8956ZM111.765 66.0568L119.329 86H107.823L100.494 66.0568H111.765ZM168.473 42.3636L161.229 86H152.28L139.134 60.8153H138.835L134.638 86H124.091L131.335 42.3636H140.412L153.452 67.5057H153.814L157.947 42.3636H168.473Z" fill="#6C02D7"/>
<defs>
<clipPath id="clip0_106_11">
<rect width="35" height="42" fill="white" transform="translate(170 41)"/>
</clipPath>
<clipPath id="clip1_106_11">
<rect width="14" height="14" fill="white" transform="translate(141 13)"/>
</clipPath>
</defs>
</svg>
