<svg width="215" height="101" viewBox="0 0 215 101" fill="none" xmlns="http://www.w3.org/2000/svg">
<path opacity="0.2" d="M194.102 71.2109H198.594C199.927 71.2109 201.248 70.9482 202.48 70.4378C203.713 69.9274 204.832 69.1793 205.775 68.2362C206.718 67.2931 207.467 66.1735 207.977 64.9413C208.487 63.7091 208.75 62.3884 208.75 61.0547C208.757 60.465 208.705 59.8761 208.594 59.2969L211.797 75.7812C212.003 76.9283 211.836 78.1111 211.323 79.1571C210.809 80.2031 209.975 81.0577 208.941 81.5962C207.908 82.1347 206.729 82.329 205.578 82.1508C204.426 81.9726 203.361 81.4312 202.539 80.6055L194.102 71.2305V71.2109Z" fill="#6C02D7"/>
<path d="M202.5 61.0938C202.5 60.6793 202.335 60.2819 202.042 59.9889C201.749 59.6959 201.352 59.5312 200.938 59.5312H194.688C194.273 59.5312 193.876 59.6959 193.583 59.9889C193.29 60.2819 193.125 60.6793 193.125 61.0938C193.125 61.5082 193.29 61.9056 193.583 62.1986C193.876 62.4916 194.273 62.6562 194.688 62.6562H200.938C201.352 62.6562 201.749 62.4916 202.042 62.1986C202.335 61.9056 202.5 61.5082 202.5 61.0938ZM185.312 59.5312H183.75V57.9688C183.75 57.5543 183.585 57.1569 183.292 56.8639C182.999 56.5709 182.602 56.4062 182.188 56.4062C181.773 56.4062 181.376 56.5709 181.083 56.8639C180.79 57.1569 180.625 57.5543 180.625 57.9688V59.5312H179.062C178.648 59.5312 178.251 59.6959 177.958 59.9889C177.665 60.2819 177.5 60.6793 177.5 61.0938C177.5 61.5082 177.665 61.9056 177.958 62.1986C178.251 62.4916 178.648 62.6562 179.062 62.6562H180.625V64.2188C180.625 64.6332 180.79 65.0306 181.083 65.3236C181.376 65.6166 181.773 65.7812 182.188 65.7812C182.602 65.7812 182.999 65.6166 183.292 65.3236C183.585 65.0306 183.75 64.6332 183.75 64.2188V62.6562H185.312C185.727 62.6562 186.124 62.4916 186.417 62.1986C186.71 61.9056 186.875 61.5082 186.875 61.0938C186.875 60.6793 186.71 60.2819 186.417 59.9889C186.124 59.6959 185.727 59.5312 185.312 59.5312Z" fill="#6C02D7"/>
<path d="M213.34 75.4883H213.32L210.137 58.9844C210.137 58.9648 210.137 58.9648 210.117 58.9453C209.628 56.2451 208.206 53.8022 206.1 52.0426C203.995 50.2829 201.338 49.3182 198.594 49.3164L181.406 49.375C178.649 49.3708 175.979 50.3404 173.867 52.1128C171.755 53.8852 170.337 56.3465 169.863 59.0625V59.1016L166.68 75.4688C166.517 76.3783 166.535 77.311 166.734 78.2133C166.933 79.1157 167.308 79.9698 167.838 80.7267C168.368 81.4835 169.042 82.1282 169.822 82.6236C170.602 83.119 171.472 83.4553 172.383 83.6133C172.782 83.6919 173.187 83.7311 173.594 83.7305C175.459 83.7266 177.247 82.99 178.574 81.6797L178.652 81.582L186.602 72.793L193.418 72.7539L201.348 81.6016L201.445 81.6992C202.763 83.012 204.546 83.7494 206.406 83.75C206.819 83.7497 207.231 83.7105 207.637 83.6328C209.47 83.3041 211.1 82.263 212.168 80.7369C213.237 79.2109 213.658 77.3239 213.34 75.4883ZM185.898 69.6875C185.682 69.691 185.469 69.7377 185.271 69.8249C185.073 69.9122 184.895 70.0381 184.746 70.1953L176.328 79.5117C175.738 80.0897 174.979 80.4657 174.162 80.5856C173.345 80.7055 172.51 80.5632 171.779 80.179C171.047 79.7948 170.457 79.1887 170.091 78.4476C169.726 77.7065 169.605 76.8688 169.746 76.0547L172.93 59.6289C172.945 59.5989 172.952 59.565 172.949 59.5312C173.311 57.5538 174.356 55.7663 175.902 54.4811C177.448 53.1958 179.396 52.4947 181.406 52.5L198.594 52.4414C200.873 52.4414 203.059 53.3468 204.67 54.9585C206.282 56.5701 207.187 58.756 207.187 61.0352C207.187 63.3144 206.282 65.5002 204.67 67.1119C203.059 68.7235 200.873 69.6289 198.594 69.6289L185.898 69.6875ZM207.09 80.5664C206.477 80.6739 205.848 80.6343 205.254 80.451C204.659 80.2676 204.117 79.9457 203.672 79.5117L197.598 72.7734H198.594C200.587 72.7754 202.548 72.2688 204.291 71.3016C206.034 70.3344 207.501 68.9385 208.555 67.2461L210.254 76.0742C210.424 77.0888 210.188 78.1296 209.595 78.9707C209.003 79.8117 208.102 80.3852 207.09 80.5664Z" fill="#6C02D7"/>
<g clip-path="url(#clip0_106_34)">
<path fill-rule="evenodd" clip-rule="evenodd" d="M136 13.4583C136.217 13.4583 136.427 13.5393 136.588 13.6855C136.749 13.8318 136.85 14.0327 136.871 14.2493L136.875 14.3333V14.6249H138.916C139.141 14.625 139.357 14.7116 139.52 14.8667C139.682 15.0217 139.779 15.2334 139.79 15.4579C139.801 15.6823 139.725 15.9023 139.578 16.0723C139.431 16.2423 139.224 16.3492 139 16.3708L138.916 16.3749H136.875V18.1249H137.458C138.144 18.1249 138.802 18.3931 139.292 18.872C139.783 19.351 140.066 20.0028 140.082 20.6881C140.099 21.3734 139.846 22.0378 139.379 22.5393C138.911 23.0408 138.267 23.3397 137.582 23.372L137.458 23.3749H136.875V23.6666C136.875 23.8913 136.788 24.1073 136.633 24.27C136.478 24.4326 136.266 24.5293 136.042 24.5401C135.817 24.5509 135.597 24.475 135.427 24.328C135.257 24.181 135.151 23.9742 135.129 23.7506L135.125 23.6666V23.3749H133.083C132.858 23.3748 132.642 23.2882 132.48 23.1332C132.317 22.9781 132.22 22.7664 132.21 22.542C132.199 22.3175 132.275 22.0975 132.422 21.9276C132.569 21.7576 132.775 21.6507 132.999 21.629L133.083 21.6249H135.125V19.8749H134.541C133.856 19.8749 133.198 19.6068 132.707 19.1278C132.217 18.6488 131.933 17.9971 131.917 17.3118C131.901 16.6265 132.154 15.9621 132.621 15.4605C133.088 14.959 133.733 14.6601 134.418 14.6278L134.541 14.6249H135.125V14.3333C135.125 14.1012 135.217 13.8786 135.381 13.7145C135.545 13.5504 135.768 13.4583 136 13.4583ZM137.458 19.8749H136.875V21.6249H137.458C137.69 21.6249 137.913 21.5327 138.077 21.3686C138.241 21.2045 138.333 20.982 138.333 20.7499C138.333 20.5179 138.241 20.2953 138.077 20.1312C137.913 19.9671 137.69 19.8749 137.458 19.8749ZM135.125 16.3749H134.541C134.309 16.3749 134.087 16.4671 133.923 16.6312C133.759 16.7953 133.666 17.0179 133.666 17.2499C133.666 17.482 133.759 17.7045 133.923 17.8686C134.087 18.0327 134.309 18.1249 134.541 18.1249H135.125V16.3749Z" fill="#6C02D7"/>
</g>
<path d="M7.58594 32L11.5703 8H21.0391C22.8516 8 24.3398 8.34766 25.5039 9.04297C26.6758 9.73047 27.4961 10.6875 27.9648 11.9141C28.4414 13.1328 28.5508 14.5391 28.293 16.1328C28.0273 17.7344 27.4492 19.1445 26.5586 20.3633C25.6758 21.5742 24.5273 22.5195 23.1133 23.1992C21.6992 23.8789 20.0664 24.2187 18.2148 24.2187H12.1797L12.8477 20.1523H18.0625C19.0469 20.1523 19.8867 19.9844 20.582 19.6484C21.2852 19.3047 21.8438 18.832 22.2578 18.2305C22.6719 17.6211 22.9414 16.9219 23.0664 16.1328C23.1992 15.3281 23.1563 14.6289 22.9375 14.0352C22.7188 13.4414 22.3164 12.9805 21.7305 12.6523C21.1523 12.3164 20.375 12.1484 19.3984 12.1484H15.9766L12.6602 32H7.58594ZM28.9521 32L32.9365 8H38.0107L34.7295 27.8164H45.0186L44.3154 32H28.9521ZM52.4248 32H46.9873L59.2568 8H65.7959L70.085 32H64.6475L61.7295 13.4844H61.542L52.4248 32ZM53.667 22.5664H66.5107L65.8311 26.5273H52.9873L53.667 22.5664ZM73.1025 8H78.7861L82.5479 18.3359H82.8057L89.9658 8H95.6494L84.3291 23.5156L82.9111 32H77.8721L79.29 23.5156L73.1025 8ZM104.441 12.1836L105.145 8H124.855L124.152 12.1836H116.805L113.523 32H108.508L111.789 12.1836H104.441ZM147.021 20.3281C146.584 22.8906 145.736 25.0664 144.479 26.8555C143.229 28.6445 141.701 30.0039 139.896 30.9336C138.1 31.8633 136.162 32.3281 134.084 32.3281C131.904 32.3281 130.025 31.832 128.447 30.8398C126.877 29.8477 125.74 28.4141 125.037 26.5391C124.334 24.6562 124.201 22.3867 124.639 19.7305C125.061 17.1602 125.9 14.9805 127.158 13.1914C128.416 11.3945 129.951 10.0273 131.764 9.08984C133.576 8.14453 135.525 7.67187 137.611 7.67187C139.775 7.67187 141.643 8.17187 143.213 9.17187C144.791 10.1719 145.928 11.6172 146.623 13.5078C147.326 15.3906 147.459 17.6641 147.021 20.3281ZM141.971 19.7305C142.244 18.082 142.232 16.6992 141.936 15.582C141.646 14.457 141.115 13.6055 140.342 13.0273C139.568 12.4492 138.592 12.1602 137.412 12.1602C136.131 12.1602 134.955 12.4805 133.885 13.1211C132.822 13.7617 131.924 14.6914 131.189 15.9102C130.463 17.1211 129.959 18.5937 129.678 20.3281C129.396 21.9844 129.404 23.3672 129.701 24.4766C130.006 25.5859 130.549 26.4258 131.33 26.9961C132.119 27.5586 133.1 27.8398 134.271 27.8398C135.545 27.8398 136.709 27.5273 137.764 26.9023C138.826 26.2695 139.721 25.3516 140.447 24.1484C141.174 22.9375 141.682 21.4648 141.971 19.7305Z" fill="#6C02D7"/>
<path d="M0.575284 86L7.8196 42.3636H38.2457L36.7969 50.929H16.9176L15.4688 59.8778H33.7926L32.3438 68.4645H14.0199L12.571 77.4347H32.4503L31.0014 86H0.575284ZM47.0455 86H35.7102L57.6776 42.3636H71.7188L79.1974 86H67.8622L63.0682 53.358H62.7273L47.0455 86ZM48.4091 68.8267H72.1023L70.7386 76.8381H47.0455L48.4091 68.8267ZM83.8956 86L91.1399 42.3636H109.165C112.433 42.3636 115.16 42.9531 117.347 44.1321C119.535 45.2969 121.09 46.973 122.013 49.1605C122.937 51.3338 123.15 53.9119 122.653 56.8949C122.17 59.9062 121.09 62.4702 119.414 64.5866C117.752 66.6889 115.607 68.294 112.979 69.402C110.366 70.5099 107.397 71.0639 104.073 71.0639H92.674L94.0803 62.7543H103.519C105.096 62.7543 106.46 62.5483 107.61 62.1364C108.761 61.7102 109.677 61.071 110.359 60.2188C111.055 59.3523 111.516 58.2443 111.744 56.8949C111.957 55.5455 111.857 54.4304 111.445 53.5497C111.048 52.6548 110.344 51.9872 109.336 51.5469C108.342 51.0923 107.063 50.8651 105.501 50.8651H100.302L94.4425 86H83.8956ZM111.765 66.0568L119.329 86H107.823L100.494 66.0568H111.765ZM168.473 42.3636L161.229 86H152.28L139.134 60.8153H138.835L134.638 86H124.091L131.335 42.3636H140.412L153.452 67.5057H153.814L157.947 42.3636H168.473Z" fill="#6C02D7"/>
<defs>
<clipPath id="clip0_106_34">
<rect width="14" height="14" fill="white" transform="translate(129 12)"/>
</clipPath>
</defs>
</svg>
