<svg width="16" height="16" viewBox="0 0 16 16" fill="none" xmlns="http://www.w3.org/2000/svg">
<path d="M8 0.5C3.93425 0.5 0.5 3.93425 0.5 8C0.5 12.0657 3.93425 15.5 8 15.5C12.0657 15.5 15.5 12.0657 15.5 8C15.5 3.93425 12.0657 0.5 8 0.5ZM8 4.25C9.29525 4.25 10.25 5.204 10.25 6.5C10.25 7.796 9.29525 8.75 8 8.75C6.7055 8.75 5.75 7.796 5.75 6.5C5.75 5.204 6.7055 4.25 8 4.25ZM4.1705 11.579C4.84325 10.589 5.96525 9.929 7.25 9.929H8.75C10.0355 9.929 11.1567 10.589 11.8295 11.579C10.871 12.605 9.51125 13.25 8 13.25C6.48875 13.25 5.129 12.605 4.1705 11.579Z" fill="#646464"/>
</svg>
