<svg width="1440" height="328" viewBox="0 0 1440 328" fill="none" xmlns="http://www.w3.org/2000/svg">
<g style="mix-blend-mode:soft-light">
<path d="M0 116.715C6.36733 101.515 90.8482 2.19452 185.855 2.19452C280.861 2.19452 324.186 117.69 415.109 148.449C700.83 245.107 724.388 0.99966 887.39 1C1050.39 1.00034 988.105 179.208 1107.68 179.208C1227.25 179.208 1189.16 99.1991 1265.47 102.897C1341.78 106.595 1366.9 213.543 1487 165.844" stroke="#FF00F5" stroke-linecap="round"/>
<path d="M0 317.62C1.91159e-05 304.85 19.5747 261.488 113.396 261.056C211.712 260.603 205.103 295.244 266.477 313.998C301.167 324.598 316.032 294.074 346.814 301.445C392.933 312.488 430.391 336.303 491.198 321.186C552.024 306.065 493.506 263.972 581.835 260.623C681.448 256.847 667.206 311.162 728.929 325.132C766.834 333.712 764.189 305.214 815.146 306.552C866.103 307.891 902.022 337.561 982.215 320.295" stroke="#FF0000" stroke-linecap="round"/>
<path d="M0 120.134C3.10602 112.408 25.7415 83.4183 60.9976 57.3296C96.3633 31.2404 139.98 7.86072 187.821 8.31812C281.356 8.57665 323.987 120.511 413.444 150.699C693.32 245.269 717.217 7.69644 877.726 7.32807C958.723 6.95942 981.86 49.3981 1003.28 92.7817C1024.98 136.155 1038.61 180.945 1098.44 181.286C1216.02 181.495 1178.79 102.742 1254.49 106.383C1330.18 110.023 1355.56 215.087 1474.69 168.13" stroke="#FF00EF"/>
<path d="M0 123.561C3.02837 115.709 25.5874 86.3608 62.3076 60.9135C99.247 35.4651 141.608 13.536 189.787 14.4508C281.852 14.9679 323.788 123.341 411.778 152.959C685.81 245.44 710.046 14.4023 868.063 13.6652C948.556 12.9278 969.652 53.2532 992.747 95.4685C1016.39 137.663 1029.32 182.691 1089.2 183.373C1204.79 183.791 1168.43 106.295 1243.5 109.878C1318.58 113.461 1344.23 216.639 1462.38 170.425" stroke="#FF00E9"/>
<path d="M0 126.991C2.95072 119.013 25.4332 89.3052 63.6176 64.4993C102.131 39.6919 143.236 19.2133 191.754 20.5855C282.347 21.3611 323.589 126.172 410.112 155.22C678.3 245.613 702.876 21.1102 858.4 20.0044C938.388 18.8981 957.443 57.1102 982.211 98.1572C1007.8 139.173 1020.04 184.439 1079.96 185.461C1193.56 186.089 1158.06 109.849 1232.52 113.375C1306.98 116.9 1332.89 218.194 1450.06 172.722" stroke="#FF00E3"/>
<path d="M0 130.433C2.87307 122.329 25.279 92.2617 64.9275 68.0973C105.014 43.9308 144.864 24.9027 193.72 26.7324C282.842 27.7665 323.391 129.016 408.446 157.493C670.791 245.799 695.705 27.8302 848.737 26.3557C928.221 24.8806 945.234 60.9794 971.675 100.858C999.216 140.695 1010.75 186.199 1070.73 187.562C1182.33 188.399 1147.7 113.416 1221.54 116.884C1295.38 120.352 1321.55 219.76 1437.75 175.03" stroke="#FF00DD"/>
<path d="M0 133.878C2.79542 125.647 25.1249 95.2208 66.2375 71.6977C107.898 48.1721 146.492 30.5946 195.687 32.8816C283.337 34.1742 323.192 131.863 406.781 159.769C663.281 245.987 688.534 34.5526 839.074 32.7094C918.053 30.8655 933.025 64.851 961.138 103.561C990.628 142.22 1001.47 187.962 1061.49 189.666C1171.1 190.712 1137.33 116.985 1210.55 120.395C1283.77 123.806 1310.21 221.329 1425.44 177.342" stroke="#FF00D7"/>
<path d="M0 137.563C2.71777 129.206 24.9707 98.4204 67.5475 75.5387C110.782 52.654 148.12 36.527 197.653 39.2715C283.833 40.8226 322.993 134.949 405.115 162.286C655.771 246.415 681.364 41.5157 829.41 39.3037C907.885 37.091 920.816 68.9632 950.602 106.505C982.039 143.985 992.181 189.965 1052.25 192.01C1159.87 193.265 1126.97 120.795 1199.57 124.147C1272.17 127.5 1298.87 223.139 1413.13 179.894" stroke="#FF00D1"/>
<path d="M0 141.317C2.64012 132.834 24.8165 101.689 68.8574 79.4487C113.666 57.2049 149.748 42.5284 199.619 45.7302C284.328 47.54 322.794 138.105 403.449 164.871C648.262 246.912 674.193 48.5477 819.747 45.967C897.718 43.3854 908.607 73.1444 940.066 109.518C973.451 145.819 982.896 192.038 1043.01 194.423C1148.64 195.888 1116.6 124.673 1188.58 127.968C1260.57 131.264 1287.53 225.018 1400.82 182.515" stroke="#FF00CB"/>
<path d="M0 145.108C2.56247 136.5 24.6624 104.995 70.1674 83.3963C116.549 61.7933 151.376 48.5674 201.586 52.2267C284.823 54.2949 322.595 141.299 401.783 167.494C640.752 247.447 667.023 55.6173 810.084 52.6679C887.551 49.7175 896.399 77.3631 929.53 112.569C964.863 147.691 973.611 194.148 1033.78 196.873C1137.41 198.548 1106.24 128.59 1177.6 131.827C1248.97 135.065 1276.19 226.934 1388.51 185.173" stroke="#FF00C5"/>
<path d="M0 148.939C2.48482 140.205 24.5082 108.341 71.4774 87.3834C119.433 66.4215 153.004 54.6461 203.552 58.7627C285.318 61.0895 322.396 144.532 400.118 170.157C633.242 248.021 659.852 62.7265 800.421 59.4084C877.383 56.0892 884.189 81.6215 918.993 115.659C956.275 149.602 964.326 196.297 1024.54 199.364C1126.18 201.247 1095.87 132.545 1166.62 135.725C1237.37 138.906 1264.86 228.89 1376.19 187.871" stroke="#FF00BF"/>
<path d="M0 152.817C2.40717 143.956 24.354 111.733 72.7873 91.417C122.317 71.0959 154.632 60.771 205.519 65.3451C285.814 67.9304 322.197 147.811 398.452 172.866C625.732 248.642 652.681 69.882 790.757 66.1952C867.215 62.5072 871.98 85.9262 908.457 118.795C947.686 151.56 955.041 198.493 1015.3 201.9C1114.95 203.993 1085.51 136.547 1155.63 139.67C1225.76 142.793 1253.52 230.892 1363.88 190.616" stroke="#FF00B9"/>
<path d="M0 156.757C2.32952 147.77 24.1998 115.188 74.0973 95.5129C125.2 75.8327 156.26 66.9583 207.485 71.9898C286.309 74.8336 321.998 151.153 396.786 175.637C618.223 249.326 645.51 77.0999 781.094 73.0444C857.048 68.9875 859.772 90.2933 897.921 121.994C939.098 153.58 945.756 200.751 1006.06 204.499C1103.72 206.801 1075.14 140.612 1144.65 143.677C1214.16 146.742 1242.18 232.957 1351.57 193.423" stroke="#FF00B3"/>
<path d="M0 160.755C2.25187 151.642 24.0457 118.7 75.4073 99.6669C128.084 80.6276 157.889 73.2039 209.452 78.6927C286.804 81.7951 321.799 154.553 395.12 178.467C610.713 250.067 638.34 84.376 771.431 79.9518C846.881 75.5261 847.563 94.7186 887.385 125.251C930.51 155.658 936.471 203.067 996.824 207.156C1092.49 209.667 1064.78 144.735 1133.67 147.742C1202.56 150.75 1230.84 235.08 1339.26 196.288" stroke="#FF00AD"/>
<path d="M0 164.837C2.17422 155.598 23.8915 122.296 76.7173 103.905C130.968 85.5062 159.517 79.533 211.418 85.4792C287.3 88.8401 321.601 158.037 393.455 181.38C603.204 250.892 631.17 91.7357 761.769 86.9428C836.714 82.1483 835.355 99.2275 876.85 128.591C921.922 157.82 927.187 205.467 987.587 209.897C1081.27 212.617 1054.41 148.941 1122.69 151.891C1190.96 154.841 1219.5 237.286 1326.95 199.237" stroke="#FF00A7"/>
<path d="M0 168.997C2.09657 159.632 23.7373 125.971 78.0273 108.221C133.852 90.4632 161.145 85.9405 213.385 92.3442C287.795 95.9636 321.402 161.599 391.789 184.372C595.694 251.795 623.999 99.1739 752.105 94.0122C826.546 88.8489 823.146 103.815 866.313 132.01C913.334 160.06 917.902 207.946 978.349 212.716C1070.03 215.645 1044.05 153.226 1111.7 156.118C1179.36 159.01 1208.16 239.571 1314.64 202.264" stroke="#FF00A1"/>
<path d="M0 173.265C2.01892 163.774 23.5832 129.754 79.3372 112.645C136.735 95.5285 162.773 92.4563 215.351 99.3174C288.29 103.195 321.203 165.269 390.123 187.471C588.185 252.807 616.828 106.72 742.442 101.19C816.378 95.6577 810.937 108.51 855.777 135.538C904.745 162.408 908.616 210.532 969.111 215.643C1058.8 218.782 1033.68 157.619 1100.72 160.454C1167.75 163.288 1196.82 241.964 1302.32 205.399" stroke="#FF009B"/>
<path d="M0 177.637C1.94127 168.019 23.429 133.64 80.6472 117.173C139.619 100.697 164.401 99.0753 217.317 106.394C288.786 110.53 321.004 169.043 388.458 190.674C580.675 253.922 609.658 114.37 732.779 108.471C806.211 102.57 798.728 113.309 845.241 139.168C896.157 164.86 899.332 213.222 959.873 218.674C1047.58 222.022 1023.32 162.115 1089.73 164.892C1156.15 167.67 1185.49 244.46 1290.01 208.637" stroke="#FF0095"/>
<path d="M0 182.131C1.86362 172.387 23.2748 137.649 81.9572 121.823C142.503 105.988 166.029 105.817 219.284 113.593C289.281 117.988 320.805 172.939 386.792 194C573.165 255.159 602.487 122.142 723.116 115.874C796.044 109.604 786.519 118.23 834.704 142.921C887.569 167.434 890.047 216.035 950.636 221.827C1036.35 225.385 1012.95 166.734 1078.75 169.454C1144.55 172.173 1174.15 247.079 1277.7 211.999" stroke="#FF008F"/>
<path d="M0 186.756C1.78597 176.887 23.1206 141.789 83.2671 126.604C145.386 111.41 167.657 112.69 221.25 120.923C289.776 125.577 320.606 176.966 385.126 197.457C565.655 256.528 595.316 130.045 713.452 123.409C785.876 116.77 774.31 123.283 824.168 146.805C878.98 170.14 880.761 218.978 941.397 225.112C1025.12 228.878 1002.59 171.484 1067.77 174.146C1132.95 176.808 1162.81 249.829 1265.39 215.491" stroke="#FF0089"/>
<path d="M0 191.507C1.70832 181.511 22.9665 146.054 84.5771 131.511C148.27 116.958 169.285 119.688 223.217 128.378C290.271 133.291 320.407 181.119 383.46 201.039C558.146 258.022 588.146 138.074 703.789 131.069C775.709 124.061 762.101 128.461 813.632 150.815C870.392 172.971 871.477 222.047 932.16 228.521C1013.89 232.497 992.221 176.359 1056.78 178.964C1121.35 181.568 1151.47 252.704 1253.08 219.108" stroke="#FF0083"/>
<path d="M0 196.386C1.63067 186.264 22.8123 150.448 85.8871 136.546C151.154 122.634 170.913 126.814 225.183 135.962C290.767 141.133 320.209 185.4 381.795 204.75C550.637 259.644 580.975 146.231 694.126 138.857C765.542 131.481 749.893 133.767 803.096 154.953C861.804 175.93 862.192 225.244 922.923 232.059C1002.66 236.244 981.856 181.363 1045.8 183.91C1109.74 186.457 1140.13 255.708 1240.76 222.855" stroke="#FF007D"/>
<path d="M0 201.386C1.55302 191.138 22.6581 154.963 87.197 141.702C154.038 128.431 172.541 134.062 227.149 143.667C291.262 149.097 320.009 189.802 380.129 208.581C543.126 261.388 573.804 154.509 684.462 146.767C755.373 139.022 737.683 139.195 792.559 159.212C853.215 179.01 852.906 228.563 913.684 235.718C991.427 240.113 971.49 186.488 1034.82 188.977C1098.14 191.467 1128.79 258.833 1228.45 226.722" stroke="#FF0077"/>
<path d="M0 206.515C1.47537 196.141 22.504 159.606 88.507 146.987C156.921 134.356 174.17 141.438 229.116 151.501C291.757 157.188 319.811 194.332 378.463 212.541C535.617 263.26 566.634 162.916 674.8 154.805C745.207 146.691 725.475 144.75 782.024 163.599C844.627 182.219 843.622 232.01 904.447 239.506C980.198 244.11 961.126 191.741 1023.83 194.173C1086.54 196.605 1117.46 262.086 1216.14 230.717" stroke="#FF0071"/>
<path d="M0 211.75C1.39772 201.25 22.3498 164.356 89.817 152.378C159.805 140.389 175.798 148.921 231.082 159.441C292.253 165.387 319.612 198.97 376.798 216.608C528.108 265.238 559.463 171.429 665.137 162.949C735.039 154.467 713.266 150.413 771.488 168.094C836.039 185.535 834.337 235.563 895.209 243.4C968.969 248.213 950.761 197.101 1012.85 199.475C1074.94 201.85 1106.12 265.447 1203.83 234.82" stroke="#FF006B"/>
<path d="M0 217.088C1.32007 206.461 22.1956 169.208 91.1269 157.871C162.689 146.523 177.426 156.505 233.049 167.483C292.748 173.688 319.413 203.709 375.131 220.777C520.597 267.319 552.292 180.045 655.473 171.196C724.871 162.344 701.057 156.177 760.951 172.69C827.45 188.952 825.051 239.219 885.971 247.397C957.738 252.419 940.395 202.563 1001.87 204.88C1063.34 207.196 1094.78 268.908 1191.52 239.024" stroke="#FF0066"/>
<path d="M0 222.529C1.24242 211.776 22.0415 174.163 92.4369 163.468C165.572 152.761 179.054 164.194 235.015 175.629C293.243 182.092 319.214 208.552 373.466 225.049C513.088 269.503 545.122 188.764 645.81 179.546C714.704 170.326 688.848 162.045 750.415 177.39C818.862 192.473 815.767 242.978 876.733 251.497C946.509 256.728 930.03 208.128 990.883 210.388C1051.73 212.647 1083.44 272.474 1179.2 243.332" stroke="#FF0060"/>
<path d="M0 228.046C1.16477 217.167 21.8873 179.195 93.7469 169.142C168.456 159.075 180.682 171.959 236.981 183.851C293.738 190.573 319.015 213.471 371.8 229.398C505.578 271.764 537.951 197.559 636.146 187.973C704.536 178.384 676.639 167.99 739.878 182.166C810.274 196.071 806.482 246.814 867.495 255.673C935.279 261.114 919.665 213.77 979.899 215.972C1040.13 218.174 1072.1 276.116 1166.89 247.716" stroke="#FF005A"/>
<path d="M0 233.643C1.08712 222.638 21.7331 184.307 95.0568 174.895C171.34 165.469 182.31 179.803 238.948 192.153C294.233 199.134 318.816 218.47 370.134 233.827C498.068 274.104 530.78 206.434 626.483 196.479C694.368 186.521 664.43 174.014 729.342 187.022C801.685 199.748 797.196 250.729 858.257 259.929C924.049 265.579 909.3 219.492 968.915 221.636C1028.53 223.781 1060.76 279.838 1154.58 252.18" stroke="#FF0054"/>
<path d="M0 239.305C1.00947 228.174 21.5789 189.484 96.3668 180.713C174.224 171.928 183.938 187.713 240.914 200.52C294.729 207.759 318.617 223.534 368.469 238.321C490.559 276.51 523.61 215.374 616.82 205.051C684.201 194.724 652.221 180.104 718.806 191.943C793.097 203.49 787.912 254.71 849.02 264.25C912.82 270.11 898.935 225.279 957.932 227.366C1016.93 229.452 1049.42 283.625 1142.27 256.709" stroke="#FF004E"/>
<path d="M0 245.04C0.931818 233.783 21.4248 194.733 97.6767 186.604C177.107 178.46 185.566 195.695 242.881 208.96C295.224 216.457 318.418 228.671 366.803 242.887C483.049 278.988 516.439 224.387 607.156 213.695C674.033 202.999 640.012 186.266 708.269 196.937C784.508 207.305 778.626 258.763 839.782 268.644C901.589 274.712 888.57 231.138 946.948 233.167C1005.33 235.196 1038.08 287.484 1129.96 261.311" stroke="#FF0048"/>
<path d="M0 250.827C0.854169 239.443 21.2706 200.034 98.9867 192.546C179.991 185.043 187.194 203.729 244.847 217.451C295.719 225.207 318.22 233.859 365.137 247.505C475.54 281.518 509.268 233.452 597.494 222.391C663.866 211.326 627.804 192.479 697.734 201.982C775.92 211.172 769.342 262.867 830.544 273.089C890.36 279.367 878.205 237.049 935.965 239.021C993.725 240.993 1026.75 291.396 1117.65 265.964" stroke="#FF0042"/>
<path d="M0 256.665C0.776518 245.156 21.1164 205.387 100.297 198.541C182.875 191.679 188.822 211.815 246.813 225.995C296.214 234.009 318.021 239.1 363.471 252.175C468.03 284.1 502.097 242.568 587.83 231.139C653.699 219.705 615.595 198.745 687.197 207.08C767.332 215.09 760.056 267.024 821.306 277.587C879.13 284.074 867.839 243.013 924.981 244.927C982.122 246.841 1015.41 295.359 1105.33 270.67" stroke="#FF003C"/>
<path d="M0 262.557C0.698869 250.921 20.9623 210.793 101.607 204.588C185.758 198.367 190.45 219.954 248.78 234.591C296.71 242.864 317.822 244.393 361.806 256.898C460.52 286.734 494.927 251.738 578.167 239.939C643.531 228.137 603.386 205.064 676.661 212.23C758.744 219.062 750.772 271.234 812.069 282.138C867.901 288.834 857.475 249.029 913.998 250.885C970.521 252.742 1004.07 299.375 1093.02 275.429" stroke="#FF0036"/>
<path d="M0 268.483C0.621219 256.722 20.8081 216.234 102.917 210.671C188.642 205.09 192.078 228.128 250.746 243.222C297.205 251.754 317.623 249.721 360.14 261.656C453.01 289.404 487.756 260.942 568.504 248.775C633.364 236.604 591.177 211.417 666.125 217.415C750.155 223.068 741.486 275.479 802.831 286.723C856.671 293.628 847.11 255.08 903.014 256.879C958.918 258.678 992.731 303.426 1080.71 280.222" stroke="#FF0030"/>
<path d="M0 274.444C0.543569 262.556 20.6539 221.709 104.227 216.787C191.526 211.848 193.707 236.336 252.713 251.887C297.7 260.678 317.424 255.084 358.474 266.448C445.501 292.108 480.586 270.181 558.841 257.645C623.197 245.105 578.968 217.805 655.589 222.635C741.567 227.109 732.202 279.758 793.594 291.343C845.442 298.457 836.745 261.165 892.031 262.906C947.317 264.648 981.393 307.512 1068.4 285.049" stroke="#FF002A"/>
<path d="M0 280.437C0.465919 268.423 20.4997 227.217 105.537 222.936C194.41 218.638 195.335 244.576 254.679 260.585C298.196 269.634 317.225 260.479 356.808 271.272C437.991 294.844 473.415 279.452 549.177 266.547C613.029 253.639 566.759 224.225 645.052 227.887C732.979 231.182 722.916 284.069 784.355 295.995C834.212 303.319 826.379 267.283 881.047 268.966C935.715 270.65 970.054 311.629 1056.09 289.909" stroke="#FF0024"/>
<path d="M0 286.471C0.388269 274.331 20.3456 232.766 106.847 229.127C197.293 225.469 196.963 252.858 256.646 269.325C298.691 278.632 317.026 265.915 355.143 276.138C430.481 297.622 466.244 288.764 539.514 275.491C602.861 262.214 554.551 230.687 634.516 233.18C724.39 235.297 713.632 288.422 775.118 300.688C822.982 308.222 816.015 273.442 870.064 275.068C924.113 276.694 958.715 315.789 1043.77 294.811" stroke="#FF001E"/>
<path d="M0 292.531C0.310619 280.265 20.1914 238.34 108.157 235.342C200.177 232.325 198.591 261.165 258.612 278.089C299.186 287.655 316.827 271.377 353.477 281.029C422.972 300.425 459.074 298.102 529.851 284.46C592.694 270.814 542.342 237.174 623.98 238.498C715.802 239.437 704.347 292.799 765.88 305.407C811.753 313.149 805.65 279.626 859.081 281.195C912.511 282.763 947.377 319.973 1031.46 299.737" stroke="#FF0018"/>
<path d="M0 298.613C0.232969 286.221 20.0372 243.937 109.466 241.581C203.061 239.205 200.219 269.495 260.578 286.876C299.681 296.7 316.628 276.861 351.811 285.943C415.462 303.251 451.903 307.462 520.188 293.452C582.526 279.436 530.133 243.683 613.444 243.84C707.213 243.599 695.061 297.2 756.642 310.148C800.523 318.1 795.284 285.833 848.096 287.344C900.909 288.855 936.038 324.18 1019.15 304.687" stroke="#FF0012"/>
<path d="M0 304.727C0.155319 292.209 19.8831 249.566 110.776 247.851C205.945 246.116 201.847 277.856 262.545 295.695C300.177 305.778 316.43 282.377 350.145 290.889C407.953 306.108 444.733 316.854 510.525 302.475C572.359 288.091 517.924 250.224 602.908 249.212C698.626 247.793 685.777 301.632 747.405 314.921C789.294 323.082 784.92 292.071 837.114 293.525C889.307 294.979 924.7 328.418 1006.84 309.668" stroke="#FF000C"/>
<path d="M0 310.856C0.0776691 298.212 19.7289 255.21 112.086 254.136C208.828 253.042 203.475 286.233 264.511 304.529C300.672 314.87 316.231 287.908 348.48 295.849C400.443 308.981 437.562 326.262 500.862 311.513C562.192 296.761 505.715 256.781 592.372 254.6C690.037 252.003 676.492 306.08 738.167 319.709C778.064 328.08 774.554 298.325 826.13 299.721C877.705 301.118 913.361 332.672 994.528 314.664" stroke="#FF0006"/>
</g>
</svg>
